# WaveFront *.obj file (generated by CINEMA 4D)

mtllib ./project.mtl

v -100 200 -100
v 100 200 -100
v 100 200 100
v -100 200 100
v 0 0 0
# 5 vertices

vn 0 1 0
vn 0.89442718029022 -0.44721359014511 0
vn 0 0 0
vn 0 -0.44721359014511 0.89442718029022
vn -0.89442718029022 -0.44721359014511 0
vn 0 -0.44721359014511 -0.89442718029022
# 6 normals

vt 0.79999995231628 0.5 0
vt 0.5 0.80000001192093 0
vt 0.19999998807907 0.5 0
vt 0.5 0.20000004768372 0
vt 0 1 0
vt 0 0 0
vt 1 0 0
vt 1 1 0
# 8 texture coordinates

o 角锥
usemtl default
f 4/4/1 3/3/1 2/2/1 1/1/1
f 2/2/2 3/3/2 5/5/2
f 3/3/4 4/4/4 5/6/4
f 4/4/5 1/1/5 5/7/5
f 1/1/6 2/2/6 5/8/6

